<svg xmlns="http://www.w3.org/2000/svg" viewBox="0 0 101.36 105.56"><defs><style>.cls-1{fill:#e8505b;}.cls-2,.cls-5{opacity:0.2;}.cls-3,.cls-5,.cls-6{fill:#fff;}.cls-4,.cls-6,.cls-7{opacity:0.3;}</style></defs><g id="Layer_2" data-name="Layer 2"><g id="Virus"><path class="cls-1" d="M84.91,51.72a36.3,36.3,0,0,0-3.52-13.84C83.1,34.3,92.24,27.27,92.24,27.27l-2.5-3.49C86,26.44,77.21,29.18,76,29.56a36.47,36.47,0,0,0-8.61-7.23c-.42-3.83,2.34-9.77,2.34-9.77l-3.92-1.75a36.35,36.35,0,0,1-5.43,8.25,36.7,36.7,0,0,0-8.2-1.83c-2.27-3.18-3.77-14.8-3.77-14.8l-4.28.4c.45,4.92-2,14.69-2,14.75A36.33,36.33,0,0,0,31.88,21c-3.48-1.67-7.3-7-7.3-7l-3.49,2.51a35,35,0,0,1,4.36,8.68A36.12,36.12,0,0,0,18.9,32c-4.09.24-14.69-4.08-14.69-4.08l-1.78,4c4,1.84,10.33,7.57,11.71,8.86a36.75,36.75,0,0,0-2.31,11.87c-3.29,2-9,2.53-9,2.53l.47,4.32a35.49,35.49,0,0,1,9,.35,36.74,36.74,0,0,0,2.93,9.33c-2.61,3.79-10.41,9.81-10.41,9.81l2.52,3.53c3.28-2.32,10.22-4.63,12.86-5.46a36.29,36.29,0,0,0,9.16,7.9c0,3.84-2.35,9-2.35,9l4,1.77A35.35,35.35,0,0,1,35.85,88a37,37,0,0,0,15.33,2.1c3,3.24,6.85,13.1,6.85,13.1l4.1-1.45c-1.3-3.69-1.6-10.67-1.68-13.59a36.71,36.71,0,0,0,8.73-4.4A35.85,35.85,0,0,0,73,80.62c3.53,1.48,7.25,5.49,7.25,5.49l3.14-3a35.79,35.79,0,0,1-5.51-7.91,36.58,36.58,0,0,0,6.23-13.94c4.42-1.17,14.35-.6,14.35-.6l.4-4.33C94.39,55.89,86.4,52.39,84.91,51.72ZM26.36,24.43l-.11.09Z"/><g class="cls-2"><path class="cls-3" d="M75.88,51.22c-1.89.21-3.69-3-6.93-6.88-.37-.5-.85-1-1.28-1.48s-1-1-1.42-1.51a42.58,42.58,0,0,0-3.34-3,30.35,30.35,0,0,0-8.43-4.73,30.32,30.32,0,0,0-9.54-1.58,39.82,39.82,0,0,0-4.45.22c-.7.11-1.4.18-2.06.29s-1.32.2-1.92.35c-4.94,1-8.37,2.38-9.71,1a1.77,1.77,0,0,1-.42-1.41,5.85,5.85,0,0,1,.72-2.25,17.05,17.05,0,0,1,5.47-5.83,22.76,22.76,0,0,1,2.28-1.43c.82-.46,1.71-.86,2.64-1.27A29.69,29.69,0,0,1,43.74,20,30,30,0,0,1,51,19.62a31.19,31.19,0,0,1,7.82,1.6A30.83,30.83,0,0,1,66,24.86,30.13,30.13,0,0,1,75.16,35c.47.91.91,1.78,1.26,2.65a24.82,24.82,0,0,1,.89,2.53,17.15,17.15,0,0,1,.62,8,5.61,5.61,0,0,1-.85,2.2A1.72,1.72,0,0,1,75.88,51.22Z"/></g><path class="cls-1" d="M3.93,25.47c.72.31.53,2.37-.44,4.59a12.14,12.14,0,0,1-1.08,2c-.74,1.08-1.5,1.69-2,1.48-.72-.31-.52-2.37.45-4.59S3.21,25.16,3.93,25.47Z"/><path class="cls-4" d="M2.52,31.88a13.84,13.84,0,0,0,1.69-4c.75.29,1.6.63,2.47.95,0,0-2,2.83-3.31,3.49Z"/><path class="cls-1" d="M1.37,53.16c.78-.09,1.65,1.78,1.95,4.19a11.6,11.6,0,0,1,.07,2.25c-.09,1.3-.44,2.21-1,2.28C1.65,62,.78,60.1.49,57.69S.59,53.26,1.37,53.16Z"/><path class="cls-4" d="M3.4,59.41a9.58,9.58,0,0,0-.57-4.31c.81-.08,1.68-.21,2.59-.37,0,0-.26,3.36-1.08,4.6Z"/><path class="cls-1" d="M2.61,77.94c.64-.47,2.32.74,3.75,2.69a12.07,12.07,0,0,1,1.17,1.92c.56,1.19.7,2.15.28,2.46-.63.46-2.31-.74-3.74-2.69S2,78.4,2.61,77.94Z"/><path class="cls-4" d="M7.45,82.38a14,14,0,0,0-2.62-3.47c.64-.5,1.36-1.07,2.07-1.66,0,0,1.45,3.13,1.35,4.62Z"/><path class="cls-1" d="M24.62,94.14c.32-.73,2.37-.54,4.6.42a11.42,11.42,0,0,1,2,1.07c1.09.74,1.7,1.49,1.49,2-.31.73-2.37.54-4.59-.42S24.31,94.86,24.62,94.14Z"/><path class="cls-4" d="M31.05,95.52a9.72,9.72,0,0,0-4-1.67c.34-.74.67-1.56,1-2.43,0,0,2.77,1.91,3.43,3.25Z"/><path class="cls-1" d="M56.48,105.06c-.27-.74,1.35-2,3.63-2.86a12.46,12.46,0,0,1,2.17-.59c1.29-.21,2.26-.08,2.44.41.27.74-1.35,2-3.63,2.86S56.75,105.8,56.48,105.06Z"/><path class="cls-4" d="M62.09,101.65A13.8,13.8,0,0,0,58,103.19c-.3-.74-.65-1.59-1-2.44,0,0,3.41-.53,4.81,0Z"/><path class="cls-1" d="M79.65,88.45c-.56-.56.4-2.39,2.12-4.09a12.47,12.47,0,0,1,1.74-1.44c1.09-.72,2-1,2.39-.63.55.56-.4,2.4-2.13,4.1S80.2,89,79.65,88.45Z"/><path class="cls-4" d="M83.35,83a9.66,9.66,0,0,0-3.06,3.08c-.55-.59-1.19-1.2-1.88-1.82,0,0,2.82-1.85,4.31-2Z"/><path class="cls-1" d="M99.54,62.85c-.78-.07-1.26-2.08-1.07-4.49a12.18,12.18,0,0,1,.38-2.22c.35-1.26.88-2.09,1.39-2,.79.06,1.27,2.07,1.07,4.49S100.33,62.91,99.54,62.85Z"/><path class="cls-4" d="M98.8,56.32a13.94,13.94,0,0,0-.3,4.34l-2.65-.11s1-3.31,2-4.36Z"/><path class="cls-4" d="M38.46,66.86c1.61,2.33,1.64,5.1.07,6.18s-4.15.07-5.76-2.26-1.64-5.1-.07-6.19S36.85,64.52,38.46,66.86Z"/><path class="cls-1" d="M35.74,65.2c1.61,2.33,1.64,5.1.07,6.19s-4.14.07-5.75-2.27S28.41,64,30,62.94,34.13,62.87,35.74,65.2Z"/><path class="cls-5" d="M35.74,65.2c1.61,2.33,1.64,5.1.07,6.19s-4.14.07-5.75-2.27S28.41,64,30,62.94,34.13,62.87,35.74,65.2Z"/><path class="cls-4" d="M20.56,43.38c1.3-2.52,3.73-3.85,5.43-3s2,3.64.69,6.15-3.74,3.84-5.43,3S19.25,45.89,20.56,43.38Z"/><path class="cls-1" d="M17.78,42c1.3-2.51,3.73-3.84,5.43-3s2,3.63.69,6.15-3.74,3.84-5.43,3S16.47,44.54,17.78,42Z"/><path class="cls-5" d="M17.78,42c1.3-2.51,3.73-3.84,5.43-3s2,3.63.69,6.15-3.74,3.84-5.43,3S16.47,44.54,17.78,42Z"/><path class="cls-4" d="M55.58,73.78a3.38,3.38,0,1,1-4.7-.86A3.38,3.38,0,0,1,55.58,73.78Z"/><path class="cls-1" d="M54.55,72.29a3.38,3.38,0,1,1-4.7-.86A3.38,3.38,0,0,1,54.55,72.29Z"/><path class="cls-6" d="M54.55,72.29a3.38,3.38,0,1,1-4.7-.86A3.38,3.38,0,0,1,54.55,72.29Z"/><path class="cls-4" d="M57,36.32a4.16,4.16,0,1,1-3.54-4.69A4.16,4.16,0,0,1,57,36.32Z"/><path class="cls-1" d="M57.29,34.12a4.16,4.16,0,1,1-3.53-4.7A4.15,4.15,0,0,1,57.29,34.12Z"/><path class="cls-6" d="M57.29,34.12a4.16,4.16,0,1,1-3.53-4.7A4.15,4.15,0,0,1,57.29,34.12Z"/><path class="cls-4" d="M71.63,66.75a2.48,2.48,0,1,1-4.08,2.81,2.48,2.48,0,0,1,4.08-2.81Z"/><path class="cls-1" d="M70.87,65.66A2.47,2.47,0,1,1,67.43,65,2.46,2.46,0,0,1,70.87,65.66Z"/><path class="cls-6" d="M70.87,65.66A2.47,2.47,0,1,1,67.43,65,2.46,2.46,0,0,1,70.87,65.66Z"/><path class="cls-1" d="M94.43,28.23c-.63.46-2.28-.73-3.7-2.66a12.61,12.61,0,0,1-1.16-1.9c-.55-1.17-.69-2.12-.28-2.43.63-.46,2.29.73,3.71,2.66S95.06,27.77,94.43,28.23Z"/><path class="cls-4" d="M89.66,23.84a13.83,13.83,0,0,0,2.58,3.43c-.63.49-1.34,1.05-2,1.64,0,0-1.43-3.09-1.33-4.56Z"/><path class="cls-1" d="M72.07,12.27c-.31.72-2.34.53-4.54-.42a10.84,10.84,0,0,1-2-1.06c-1.07-.72-1.67-1.47-1.47-1.94.31-.72,2.34-.53,4.54.42S72.37,11.56,72.07,12.27Z"/><path class="cls-4" d="M65.72,10.9a9.55,9.55,0,0,0,4,1.66c-.34.72-.66,1.53-1,2.39,0,0-2.73-1.89-3.39-3.21Z"/><path class="cls-1" d="M50.3,1c.08.78-1.78,1.61-4.16,1.86a11.26,11.26,0,0,1-2.23,0c-1.28-.11-2.18-.46-2.23-1C41.6,1.16,43.46.33,45.84.07S50.22.24,50.3,1Z"/><path class="cls-4" d="M44.1,2.93a13.93,13.93,0,0,0,4.27-.5c.11.78.23,1.68.38,2.59,0,0-3.39-.32-4.6-1.15Z"/><path class="cls-1" d="M25.53,11.74c.46.63-.73,2.29-2.65,3.72A12.13,12.13,0,0,1,21,16.62c-1.16.56-2.12.7-2.42.29-.47-.63.72-2.29,2.64-3.72S25.06,11.12,25.53,11.74Z"/><path class="cls-4" d="M21.15,16.54a9.58,9.58,0,0,0,3.43-2.6A25.81,25.81,0,0,0,26.16,16s-3,1.42-4.48,1.32Z"/><path class="cls-4" d="M74.1,54.41c.33,2.82-.93,5.28-2.83,5.5s-3.69-1.88-4-4.69.94-5.28,2.83-5.5S73.77,51.59,74.1,54.41Z"/><path class="cls-1" d="M74.53,52.43c.33,2.81-.94,5.28-2.83,5.5s-3.7-1.88-4-4.69.94-5.28,2.83-5.51S74.2,49.61,74.53,52.43Z"/><path class="cls-6" d="M74.53,52.43c.33,2.81-.94,5.28-2.83,5.5s-3.7-1.88-4-4.69.94-5.28,2.83-5.51S74.2,49.61,74.53,52.43Z"/><path class="cls-4" d="M52,49.8a5.13,5.13,0,1,1-7.13-1.31A5.13,5.13,0,0,1,52,49.8Z"/><path class="cls-1" d="M50.29,47.35A5.13,5.13,0,1,1,43.15,46,5.14,5.14,0,0,1,50.29,47.35Z"/><path class="cls-5" d="M50.29,47.35A5.13,5.13,0,1,1,43.15,46,5.14,5.14,0,0,1,50.29,47.35Z"/><g class="cls-7"><path d="M78.88,65.36c.41.19.46,1.13.07,2.67a21.27,21.27,0,0,1-2.85,6,30.84,30.84,0,0,1-2.84,3.7,34.14,34.14,0,0,1-14.82,9.58,34.6,34.6,0,0,1-12.3,1.56,35.73,35.73,0,0,1-5.34-.71,32.33,32.33,0,0,1-4.46-1.35,21.12,21.12,0,0,1-5.83-3.27c-1.22-1-1.72-1.82-1.51-2.2.48-.85,3.61.23,8.57,1,1.23.19,2.59.32,4,.44s3,.13,4.6,0a39.06,39.06,0,0,0,10.22-1.77,39.42,39.42,0,0,0,9.33-4.51,44.07,44.07,0,0,0,3.71-2.73c1.11-.93,2.14-1.83,3-2.7C76.08,67.65,78,65,78.88,65.36Z"/></g><g class="cls-7"><path d="M21.25,71a3.14,3.14,0,1,1-.72,4.49A3.22,3.22,0,0,1,21.25,71Z"/></g></g></g></svg>