<svg xmlns="http://www.w3.org/2000/svg" viewBox="0 0 408.29 354.73"><defs><style>.cls-1{fill:#1054ae;}.cls-2{fill:#073f68;}.cls-3{fill:#2b8cce;}.cls-4{fill:#40aaeb;}.cls-5{fill:#fff;}.cls-6{fill:#ccf8ff;}.cls-7{fill:none;stroke:#fff;stroke-linecap:round;stroke-linejoin:round;stroke-width:4.92px;}.cls-8{fill:#afeeff;}.cls-9{fill:#03a144;}.cls-10{fill:#3ad93b;}.cls-11{fill:#1ec61e;}</style></defs><g id="Layer_2" data-name="Layer 2"><g id="Objects"><path class="cls-1" d="M321,285.38c-7.59,0-14.91-2.8-21.38-8.44-18-15.73-22.83-28.51-22.18-88.45a7.33,7.33,0,0,1,7.31-7.25h.09a7.33,7.33,0,0,1,7.25,7.41c-.64,59.33,4.48,66.19,17.16,77.25,10.51,9.16,21.44,3.47,28.76-2.91,6.15-5.37,12.06-13.23,17.56-23.38a7.32,7.32,0,0,1,12.88,7c-6.33,11.69-13.33,20.92-20.8,27.44C339,281.57,329.78,285.37,321,285.38Z"/><path class="cls-2" d="M299.55,255.14c-5.64-9.59-7.94-25.54-7.5-66.49a7.33,7.33,0,0,0-7.25-7.41h-.08a7.33,7.33,0,0,0-7.32,7.25c-.57,52.37,3,68.74,16,82.53Q296.09,263,299.55,255.14Z"/><path class="cls-1" d="M60.76,296.46a43.69,43.69,0,0,1-25.36-8C13.3,273-6.78,227.91,20.31,180.26a8.18,8.18,0,1,1,14.22,8.09c-22.85,40.2-4.6,76.27,10.24,86.66a28.08,28.08,0,0,0,21.66,4.55c13.19-2.45,26.93-13.37,38.68-30.76A8.18,8.18,0,0,1,118.67,258c-18.23,27-36.85,35.39-49.26,37.69A47.47,47.47,0,0,1,60.76,296.46Z"/><path class="cls-2" d="M116.47,246.6a8.2,8.2,0,0,0-11.36,2.2c-11.75,17.39-25.49,28.31-38.68,30.76A28.08,28.08,0,0,1,44.77,275a30.18,30.18,0,0,1-3-2.38q-6,5.75-12.35,10.86a49,49,0,0,0,5.93,4.93,43.69,43.69,0,0,0,25.36,8,47.47,47.47,0,0,0,8.65-.81c12.41-2.3,31-10.71,49.26-37.69A8.18,8.18,0,0,0,116.47,246.6Z"/><path class="cls-1" d="M327.51,62.25S316.42,333.31,164,352.77C11.63,333.61,0,62.57,0,62.57c1.5.08,3,.12,4.42.12,54.89,0,66.68-55,66.68-55L163.7,0l92.61,7.53s11.89,54.9,66.78,54.85C324.54,62.37,326,62.33,327.51,62.25Z"/><path class="cls-3" d="M320.62,66.35S310,326,164,344.63C18,326.28,6.9,66.66,6.9,66.66c1.44.08,2.85.12,4.24.11C63.71,66.72,75,14.11,75,14.11L163.7,6.73l88.71,7.2s11.4,52.6,64,52.54C317.77,66.47,319.18,66.43,320.62,66.35Z"/><path class="cls-1" d="M288.23,92.25c-2.18,21.81-7.42,60-19.5,98.84-10.51,33.82-24,61.22-40.13,81.41-9.1,11.39-19.11,20.53-29.76,27.16A91.7,91.7,0,0,1,164,312.58a92.07,92.07,0,0,1-34.74-12.77c-10.63-6.57-20.63-15.64-29.73-26.93C83.39,252.82,69.84,225.6,59.25,192,47,153,41.6,114.47,39.35,92.5c30.73-6.29,48.37-29.22,56.52-48.2l67.86-5.65,67.88,5.51C239.81,63.13,257.49,86,288.23,92.25Z"/><path class="cls-3" d="M284.65,98.6c-2.11,21.18-7.21,58.27-18.93,96-10.21,32.85-23.33,59.45-39,79.07A115.87,115.87,0,0,1,197.84,300,89.34,89.34,0,0,1,164,312.58a89.35,89.35,0,0,1-33.74-12.41c-10.32-6.37-20-15.18-28.87-26.15-15.67-19.48-28.83-45.91-39.13-78.58-11.9-37.8-17.13-75.27-19.32-96.6,29.85-6.11,47-28.38,54.89-46.82l65.91-5.48,65.92,5.35C237.62,70.32,254.8,92.55,284.65,98.6Z"/><path class="cls-3" d="M135.05,246.7l-9-66.8q-2-51.89,21.64-96.8A188.78,188.78,0,0,1,164,46.57l-.28,0L97.83,52c-7.91,18.44-25,40.71-54.89,46.82,2.19,21.33,7.42,58.8,19.32,96.6,10.3,32.67,23.46,59.1,39.13,78.58,8.84,11,18.55,19.78,28.87,26.15a89.36,89.36,0,0,0,33.66,12.4A253.43,253.43,0,0,1,135.05,246.7Z"/><path class="cls-4" d="M229.66,51.89l-62.16-5-16,68.29a234.1,234.1,0,0,0-2.31,96.08l18.6,100.69A89.44,89.44,0,0,0,197.84,300a115.87,115.87,0,0,0,28.9-26.38c15.65-19.62,28.77-46.22,39-79.07,11.72-37.72,16.82-74.81,18.93-96C254.8,92.55,237.62,70.32,229.66,51.89Z"/><path class="cls-5" d="M305,74.62C256.35,74.67,245.8,26,245.8,26l-82.09-6.67L81.64,26.16S71.19,74.85,22.54,74.9c-1.29,0-2.6,0-3.93-.1C18.61,74.8,28.93,315,164,332c135.06-17.24,144.9-257.51,144.9-257.51C307.59,74.58,306.28,74.62,305,74.62ZM268.73,191.09c-10.51,33.82-24,61.22-40.13,81.41-9.1,11.39-19.11,20.53-29.76,27.16A91.7,91.7,0,0,1,164,312.58a92.07,92.07,0,0,1-34.74-12.77c-10.63-6.57-20.63-15.64-29.73-26.93C83.39,252.82,69.84,225.6,59.25,192,47,153,41.6,114.47,39.35,92.5c30.73-6.29,48.37-29.22,56.52-48.2l67.86-5.65,67.88,5.51c8.2,19,25.88,41.87,56.62,48.09C286.05,114.06,280.81,152.25,268.73,191.09Z"/><path class="cls-6" d="M168.69,311.74c-1.55.32-3.11.6-4.69.84a92.07,92.07,0,0,1-34.74-12.77c-10.63-6.57-20.63-15.64-29.73-26.93C83.39,252.82,69.84,225.6,59.25,192,47,153,41.6,114.47,39.35,92.5c30.73-6.29,48.37-29.22,56.52-48.2l67.86-5.65,4.69.38,0-19.31-4.69-.39L81.64,26.16S71.19,74.85,22.54,74.9c-1.29,0-2.6,0-3.93-.1C18.61,74.8,28.93,315,164,332c1.59-.2,3.14-.47,4.69-.73Z"/><circle class="cls-5" cx="226.55" cy="145.9" r="26.71"/><circle class="cls-1" cx="230.76" cy="145.89" r="21.17"/><circle class="cls-5" cx="242.26" cy="145.88" r="7.16"/><circle class="cls-5" cx="222.19" cy="140.29" r="4.21"/><circle class="cls-5" cx="108.65" cy="146.01" r="26.71"/><circle class="cls-1" cx="112.86" cy="146.01" r="21.17"/><circle class="cls-5" cx="124.37" cy="146" r="7.16"/><circle class="cls-5" cx="104.3" cy="140.4" r="4.21"/><polygon class="cls-5" points="196.04 111.25 198.01 113.77 233.63 98.3 230.84 91.57 196.04 111.25"/><polygon class="cls-5" points="138.93 111.3 136.97 113.83 101.31 98.43 104.09 91.69 138.93 111.3"/><path class="cls-7" d="M151.39,198.6c4.47-15,29.88-15,34.37,0"/><path class="cls-1" d="M151.31,208.84a45.55,45.55,0,0,1-24.77,17.82c-20.55,6.22-38.44-4.72-52.27-17.29-9.08,15.45-14.83,36.3-14.81,59.25,0,47.59,53.61,86.11,53.61,86.11s53.48-38.63,53.44-86.22C166.48,245.33,160.58,224.31,151.31,208.84Z"/><path class="cls-5" d="M150,214.85c-5.73,8-14.91,13.28-24.62,16.22-18.85,5.7-37.16-4.2-49.85-15.73-8.32,14.18-11.71,33.31-11.69,54.37,0,43.66,49.18,79,49.18,79s49.08-35.45,49-79.11C162.07,248.34,158.54,229.05,150,214.85Z"/><path class="cls-3" d="M148.62,227.18c-5.41,7.42-14,12.1-22.74,14.76-16.87,5.14-33.58-3.65-45.34-14.31C73.46,240.7,73.21,257.82,74,276c1.55,35.76,40.8,62.9,40.8,62.9s39.19-27.22,40.67-63C156.23,257.55,155.86,240.27,148.62,227.18Z"/><path class="cls-5" d="M142.3,283a4.93,4.93,0,0,1-1.49,3.57,5,5,0,0,1-3.59,1.5h-15v15.05a5.08,5.08,0,0,1-10.16,0V288.13H97A5.07,5.07,0,1,1,97,278l15,0,0-15.05a5.08,5.08,0,0,1,8.67-3.57,5,5,0,0,1,1.49,3.56l0,15.05h15A5.06,5.06,0,0,1,142.3,283Z"/><rect class="cls-1" x="354.71" y="226.75" width="17.59" height="57.88"/><polygon class="cls-1" points="395.23 219.08 363.47 219.12 363.49 233.31 395.24 233.28 398.66 226.18 395.23 219.08"/><polygon class="cls-1" points="331.72 219.15 363.47 219.12 363.49 233.31 331.73 233.35 328.3 226.25 331.72 219.15"/><polygon class="cls-1" points="389.2 132.9 381.12 222.51 345.84 222.54 337.57 132.95 363.36 96.49 389.2 132.9"/><polygon class="cls-5" points="383.23 136.72 377.03 219.1 349.92 219.13 343.55 136.76 363.37 103.24 383.23 136.72"/><polygon class="cls-8" points="362.39 104.9 343.55 136.76 349.92 219.13 362.5 219.12 362.39 104.9"/><circle class="cls-1" cx="363.48" cy="222.53" r="16.57"/><circle class="cls-5" cx="363.48" cy="222.53" r="9.82"/><path class="cls-8" d="M362.85,212.74a9.8,9.8,0,0,0,0,19.57Z"/><circle class="cls-9" cx="363.81" cy="91.14" r="33.27"/><circle class="cls-9" cx="363.81" cy="91.14" r="30.84"/><circle class="cls-10" cx="363.81" cy="91.14" r="26.24"/><path class="cls-11" d="M376.24,68a26.25,26.25,0,0,1-34.36,37.53A26.24,26.24,0,1,0,376.24,68Z"/><path class="cls-9" d="M348.86,67.13c-3.94,2.32-5.88.38-5.88.38s-1.2-7.69-4.34-12.57l2.27-1.33Z"/><path class="cls-9" d="M348.86,67.13c3.95-2.32,3.2-5,3.2-5s-6.14-4.79-8.88-9.9l-2.27,1.34Z"/><ellipse class="cls-10" cx="341.15" cy="54.01" rx="7.6" ry="3.04" transform="translate(19.68 180.33) rotate(-30.45)"/><ellipse class="cls-9" cx="340.91" cy="53.61" rx="4.29" ry="1.25" transform="translate(19.85 180.16) rotate(-30.45)"/><path class="cls-9" d="M382.45,88.3c-1.5-2.54-.93-3.39-.93-3.39s4.76-.68,6.41-1.83l.86,1.47Z"/><path class="cls-9" d="M382.45,88.3c1.49,2.54,2.51,2.46,2.51,2.46s2.89-3.86,4.69-4.75l-.86-1.46Z"/><ellipse class="cls-9" cx="388.54" cy="84.71" rx="2.83" ry="4.37" transform="translate(10.78 208.97) rotate(-30.51)"/><ellipse class="cls-9" cx="388.91" cy="84.49" rx="1.17" ry="2.47" transform="translate(10.95 209.13) rotate(-30.51)"/><path class="cls-9" d="M351.34,80.31c-2.31,1.83-3.23,1.38-3.23,1.38s-1.32-4.62-2.68-6.11l1.33-1Z"/><path class="cls-9" d="M351.34,80.31c2.31-1.83,2.09-2.82,2.09-2.82s-4.21-2.34-5.34-4l-1.33,1Z"/><ellipse class="cls-10" cx="346.96" cy="74.76" rx="4.37" ry="2.83" transform="translate(28.3 231.04) rotate(-38.28)"/><ellipse class="cls-9" cx="346.69" cy="74.42" rx="2.47" ry="1.17" transform="translate(28.45 230.8) rotate(-38.28)"/><path class="cls-9" d="M345.25,91c.49,4.6-2,5.38-2,5.38S336,93.7,330.44,94.11l-.29-2.64Z"/><path class="cls-9" d="M345.25,91c-.49-4.61-3.12-5.22-3.12-5.22s-6.66,3.12-12.26,3.08l.28,2.65Z"/><ellipse class="cls-10" cx="330.68" cy="91.45" rx="4.99" ry="7.7" transform="translate(-10.29 53.39) rotate(-9.09)"/><ellipse class="cls-9" cx="329.92" cy="91.47" rx="2.06" ry="4.34" transform="translate(-8.92 42.49) rotate(-7.27)"/><path class="cls-9" d="M383.78,99.77c2-4.13,4.3-3.79,4.3-3.79s4.28,5.22,8.79,7.12l-1.13,2.38Z"/><path class="cls-9" d="M383.78,99.77c-2,4.13-.24,5.72-.24,5.72s6.74.05,11.06,2.37l1.14-2.38Z"/><ellipse class="cls-10" cx="395.32" cy="105.28" rx="7.6" ry="4.4" transform="translate(129.92 416.6) rotate(-64.47)"/><ellipse class="cls-9" cx="395.93" cy="105.57" rx="4.29" ry="1.81" transform="translate(130 417.32) rotate(-64.47)"/><path class="cls-9" d="M340.79,76.38a3,3,0,0,0,0-3.86,49.45,49.45,0,0,1-10.05-5.72L329.81,68Z"/><path class="cls-9" d="M340.79,76.38a3,3,0,0,1-3.73,1,49.45,49.45,0,0,0-8.18-8.16l.93-1.23Z"/><ellipse class="cls-10" cx="330.13" cy="68.27" rx="3.8" ry="2.67" transform="matrix(0.61, -0.8, 0.8, 0.61, 75.84, 289.59)"/><ellipse class="cls-9" cx="329.81" cy="68.02" rx="2.51" ry="1.1" transform="translate(75.91 289.24) rotate(-52.72)"/><path class="cls-9" d="M377,70.7a3,3,0,0,0,3.86,0,49.45,49.45,0,0,1,5.72-10l-1.22-.93Z"/><path class="cls-9" d="M377,70.7A3,3,0,0,1,376,67a49.26,49.26,0,0,0,8.16-8.19l1.23.94Z"/><ellipse class="cls-10" cx="385.1" cy="60.05" rx="2.67" ry="3.8" transform="translate(104.05 330.09) rotate(-52.72)"/><ellipse class="cls-9" cx="385.35" cy="59.73" rx="1.1" ry="2.51" transform="translate(104.41 330.16) rotate(-52.72)"/><path class="cls-9" d="M387.82,76.19c-2.32-3.94-.38-5.88-.38-5.88S395.13,69.11,400,66l1.33,2.27Z"/><path class="cls-9" d="M387.82,76.19c2.32,4,5,3.2,5,3.2s4.78-6.13,9.89-8.87l-1.33-2.27Z"/><ellipse class="cls-10" cx="400.94" cy="68.48" rx="3.04" ry="7.6" transform="translate(20.59 212.63) rotate(-30.45)"/><ellipse class="cls-9" cx="401.34" cy="68.25" rx="1.25" ry="4.29" transform="translate(20.77 212.8) rotate(-30.45)"/><path class="cls-9" d="M365.23,69.11c-4.08-.92-4.12-3.61-4.12-3.61s4.12-6.36,5.18-12l2.35.53Z"/><path class="cls-9" d="M365.23,69.11c4.09.93,5.28-1.48,5.28-1.48s-1-7.52.48-13l-2.35-.53Z"/><ellipse class="cls-10" cx="368.17" cy="54.95" rx="2.99" ry="5.96" transform="matrix(0.21, -0.98, 0.98, 0.21, 236.21, 403.02)"/><ellipse class="cls-9" cx="368.26" cy="54.5" rx="1.23" ry="3.93" transform="translate(236.72 402.76) rotate(-77.73)"/><path class="cls-9" d="M378.75,115.15c3.95-2.32,5.89-.38,5.89-.38s1.2,7.69,4.33,12.57l-2.27,1.33Z"/><path class="cls-9" d="M378.75,115.15c-3.94,2.32-3.19,5-3.19,5s6.13,4.79,8.87,9.9l2.27-1.34Z"/><ellipse class="cls-10" cx="386.47" cy="128.27" rx="7.6" ry="3.04" transform="translate(-11.7 213.54) rotate(-30.45)"/><ellipse class="cls-9" cx="386.7" cy="128.67" rx="4.29" ry="1.25" transform="translate(-11.87 213.71) rotate(-30.45)"/><path class="cls-9" d="M364.48,117.72c-3.75,0-4.28,2.39-4.28,2.39s2.41,6.33,2.28,11.43l2.15,0Z"/><path class="cls-9" d="M364.48,117.72c3.74,0,4.33,2.29,4.33,2.29s-2.27,6.39-2,11.49l-2.16,0Z"/><ellipse class="cls-10" cx="364.63" cy="131.11" rx="5.33" ry="2.67" transform="translate(-1.45 4.09) rotate(-0.64)"/><ellipse class="cls-9" cx="364.63" cy="131.52" rx="3.51" ry="1.1" transform="translate(-1.45 4.09) rotate(-0.64)"/><path class="cls-9" d="M392.74,89.91c.66-3.69,3.06-3.83,3.06-3.83s5.85,3.42,10.9,4.13l-.38,2.12Z"/><path class="cls-9" d="M392.74,89.91c-.66,3.69,1.54,4.65,1.54,4.65S401,93.37,406,94.45l.37-2.12Z"/><ellipse class="cls-10" cx="405.51" cy="91.95" rx="5.33" ry="2.67" transform="translate(246.95 476.33) rotate(-80.36)"/><ellipse class="cls-9" cx="405.91" cy="92.01" rx="3.51" ry="1.1" transform="translate(247.22 476.79) rotate(-80.36)"/><path class="cls-9" d="M339.8,106.08c2.32,4,.37,5.89.37,5.89s-7.68,1.2-12.56,4.33L326.27,114Z"/><path class="cls-9" d="M339.8,106.08c-2.32-3.94-5-3.19-5-3.19s-4.79,6.13-9.9,8.87l1.33,2.27Z"/><ellipse class="cls-10" cx="326.68" cy="113.8" rx="3.04" ry="7.6" transform="translate(-12.61 181.24) rotate(-30.45)"/><ellipse class="cls-9" cx="326.27" cy="114.03" rx="1.25" ry="4.29" transform="matrix(0.86, -0.51, 0.51, 0.86, -12.79, 181.07)"/><path class="cls-9" d="M349.05,114.16a3,3,0,0,0-3.86,0,49.73,49.73,0,0,1-5.72,10l1.22.93Z"/><path class="cls-9" d="M349.05,114.16a3,3,0,0,1,1,3.72,49.56,49.56,0,0,0-8.17,8.19l-1.22-.93Z"/><ellipse class="cls-10" cx="340.94" cy="124.81" rx="2.67" ry="3.8" transform="translate(35.11 320.49) rotate(-52.72)"/><ellipse class="cls-9" cx="340.69" cy="125.14" rx="1.1" ry="2.51" transform="translate(34.76 320.42) rotate(-52.72)"/></g></g></svg>